<svg width="467" height="192" viewBox="0 0 467 192" fill="none" xmlns="http://www.w3.org/2000/svg">
<g filter="url(#filter0_dd_1_95)">
<path d="M16 71.2397L35.3692 104.097L43.1169 96.6513L21.9722 65.0891L16 71.2397Z" fill="url(#paint0_linear_1_95)"/>
<path d="M304.278 45.3426L303.471 49.7127L312.672 46.6374L311.542 41.2961L304.278 45.3426Z" fill="#0071B9"/>
<path d="M250.045 15.7227L220.184 50.0364L228.9 47.6086L257.308 12L250.045 15.7227Z" fill="url(#paint1_linear_1_95)"/>
<path d="M410.002 62.6613L417.265 58.7767L415.167 77.2284L410.002 62.6613Z" fill="#1D2C5E"/>
<path d="M364.323 74.4768L370.941 75.9336L379.172 71.8871L371.909 69.1356L364.323 74.4768Z" fill="#1D2C5E"/>
<path d="M139.64 55.054L140.608 76.2573L149.809 72.6964L147.065 51.0076L139.64 55.054Z" fill="url(#paint2_linear_1_95)"/>
<path d="M371.425 48.5797L364.161 52.6261L364.323 74.4769L371.748 70.7541L374.007 60.0716L371.425 48.5797Z" fill="url(#paint3_linear_1_95)"/>
<path d="M370.456 75.9336L362.386 147.798L375.299 145.208L377.72 72.049L370.456 75.9336Z" fill="#312370"/>
<path d="M386.113 151.197L386.436 160.909L411.132 168.84L418.557 164.955L394.184 146.018L369.649 143.914L362.386 147.798L386.113 151.197Z" fill="#21386E"/>
<path d="M294.432 134.04L300.404 130.803L304.44 137.925L310.089 134.85L311.219 144.237L347.213 150.712L354.315 146.665L304.763 116.398L269.575 122.387L262.796 129.023L294.432 134.04Z" fill="#21386E"/>
<path d="M282.972 45.6663L275.709 49.7127L262.796 129.023L270.059 125.138L282.488 80.6274L282.972 45.6663Z" fill="url(#paint4_linear_1_95)"/>
<path d="M225.51 56.3489L219.699 59.4241L220.184 61.3664L233.904 52.6261L227.931 46.1519L220.184 50.0364L225.51 56.3489Z" fill="#1D2C5E"/>
<path d="M241.167 150.064L182.575 120.93L189.839 115.265L248.43 146.018L241.167 150.064Z" fill="#21386E"/>
<path d="M188.063 41.6199L179.186 58.453L188.547 55.7014L195.327 37.5734L188.063 41.6199Z" fill="#1D2C5E"/>
<path d="M107.358 111.38L99.9332 116.56C99.9332 116.56 101.547 124.976 103.646 130.803C105.744 136.63 110.586 141.324 110.586 141.324C113.814 144.399 117.527 146.665 121.885 147.96C130.117 150.388 139.479 148.769 147.549 143.59C149.648 142.295 152.553 140.191 154.328 138.41C146.419 143.266 107.358 111.38 107.358 111.38Z" fill="url(#paint5_linear_1_95)"/>
<path d="M147.549 74.6387L154.328 150.226L182.414 146.18L189.839 142.295L155.135 70.1067L148.033 72.5346L140.609 76.2573L147.549 74.6387Z" fill="#1D2C5E"/>
<path d="M42.6327 100.86L73.9463 171.915L103.646 162.365L110.909 157.51L49.2505 92.7667L41.5028 97.4606L35.3693 104.097L42.6327 100.86Z" fill="url(#paint6_linear_1_95)"/>
<path d="M352.378 134.364L352.863 137.925C355.445 137.601 358.028 137.277 360.449 136.468C363.193 135.497 369.004 132.907 371.102 130.965C370.134 131.289 356.575 134.85 352.378 134.364Z" fill="#1D2C5E"/>
<path d="M247.301 116.236L248.43 121.901C254.403 120.93 259.568 118.826 264.733 115.75C267.961 113.808 271.351 111.057 272.48 110.247C271.673 110.733 247.301 116.236 247.301 116.236Z" fill="#1D2C5E"/>
<path d="M82.0958 165.14L79.836 159.96L50.1366 93.5987L49.4909 92.3038L48.1997 92.9512L47.2312 93.4368L41.9047 96.0265C41.0976 94.7317 39.8063 92.4657 38.9993 91.0089L27.055 70.7768L23.9882 65.4355L29.1533 62.1984C33.9956 59.1231 39.4835 56.2097 45.6171 53.6199C57.5614 48.6024 69.6672 45.8508 80.8045 45.8508C84.5169 45.8508 88.0679 46.1745 91.2961 46.6601C96.7841 47.3075 101.949 49.0879 106.146 52.0014C112.441 55.5622 117.445 61.0654 120.189 67.5397C122.448 72.881 122.932 79.1934 121.48 85.6677L120.673 89.5522L123.901 87.2862C125.999 85.6677 128.259 84.3728 130.68 83.4017C134.877 81.6212 139.235 80.6501 143.593 80.6501C147.79 80.6501 151.663 81.4594 155.214 83.0779L157.474 84.0491L157.313 81.4594L156.344 70.615L156.183 68.8345L154.569 69.3201L149.565 70.615L148.758 52.1632L185.56 40.3477L185.237 54.753L187.981 55.4004L196.051 40.024L220.101 61.3891L221.07 62.3602L222.038 61.3891C225.266 58.3138 229.302 55.7241 233.66 53.9437L235.435 53.1344L234.144 51.5158L229.786 46.1745L257.387 14.2887L271.914 35.9775L249.801 47.9549L244.958 50.5447L250.608 50.7065C261.099 50.8684 270.461 55.4004 276.756 63.1695L279.016 66.0829L280.469 67.8634L278.048 70.4531L276.433 72.2335L270.945 78.2222L269.977 79.3552L271.107 80.3264L276.272 85.0202L278.209 86.8007L278.693 84.211L280.63 71.9098L281.114 68.6727L281.599 65.4355L284.504 47.1457H311.944L312.105 45.8508L312.589 42.7755H336.478L342.289 79.3552L342.612 81.7831L344.548 80.3264C346.97 78.546 349.552 77.2511 352.296 76.1181C356.009 74.6614 359.721 74.014 363.595 74.014C368.114 74.014 372.472 74.9851 376.185 77.0892C376.346 77.0892 376.346 77.2511 376.669 77.4129L378.445 78.0604L378.606 76.1181L379.09 72.0717L379.252 70.7768L377.96 70.4531L373.118 69.3201L372.957 50.2209L409.919 58.3138L412.663 72.0717H415.569L418.474 60.2561L449.304 67.7015L417.667 163.035L395.231 155.914L395.07 147.173V145.879L393.779 145.717L371.343 142.48L372.634 130.988L372.957 128.236L370.535 129.531C369.406 130.178 368.276 130.664 367.146 130.988C363.433 132.444 359.721 133.092 356.009 133.092C354.879 133.092 353.91 133.092 352.78 132.93L350.843 132.768L351.166 134.71L352.78 144.746L320.014 138.919L318.239 124.028L317.754 119.172L315.495 123.38L311.782 130.664L304.842 117.877L302.743 113.993L302.098 118.363L300.645 128.236L271.914 123.704L274.174 110.108L274.658 107.033L271.914 108.651C267.233 111.403 261.745 113.669 255.45 115.126C253.19 115.611 250.931 116.097 248.509 116.259L247.218 116.421V143.613L190.725 115.611L188.626 114.64V141.023L163.285 144.746L162.155 133.254L161.832 130.178L159.573 132.283C156.183 135.52 152.471 138.109 148.435 139.89C144.239 141.67 139.881 142.641 135.684 142.641C131.326 142.641 127.291 141.67 123.578 140.052C116.799 136.815 111.795 130.826 109.697 123.219C108.728 119.658 108.406 115.935 108.89 112.05L109.374 108.004L106.469 110.917C104.37 112.86 102.111 114.802 99.6895 116.582L98.8824 117.23L99.2052 118.201L107.76 150.896L109.213 156.723L103.563 158.503L87.5837 163.683L82.0958 165.14ZM89.1978 77.2511C88.3908 77.2511 87.5837 77.2511 86.6152 77.4129L85.4854 77.5748L83.8713 77.8985L84.3555 79.5171L84.6783 80.4882L89.1978 95.541L89.682 96.9977L90.3277 99.1018L91.9418 97.6451L93.0716 96.674C97.5911 92.6275 99.0438 88.5811 98.0754 83.4017C97.4297 80.3264 95.17 78.8697 93.7173 78.2222C92.7488 77.5748 90.9733 77.2511 89.1978 77.2511ZM212.192 77.7367L209.287 80.4882L201.701 87.7718L200.086 89.3904L202.185 90.1997L210.255 93.275L212.676 94.2461L212.192 91.6564C211.547 88.2574 211.385 84.8584 211.708 81.6212L212.192 77.7367ZM245.12 69.3201C242.053 69.3201 238.986 70.615 236.888 73.0428C233.66 76.6037 233.014 81.945 235.274 86.1532L235.92 87.2862L236.888 89.0667L238.341 87.4481L239.309 86.477L250.446 73.8521L251.253 72.881L252.706 71.2624L250.769 70.4531L249.478 69.9675C247.864 69.6438 246.573 69.3201 245.12 69.3201Z" fill="#FFCB05"/>
<path d="M261.989 88.0728L261.666 88.3966C261.827 88.3966 261.989 88.2347 261.989 88.0728Z" fill="#7D7F68"/>
<path d="M271.674 79.3325L277.161 73.3438L275.225 75.2861V75.1242L273.61 76.9046L268.122 82.7315L273.288 87.4254L274.256 81.5985L276.839 83.8645L271.674 79.3325Z" fill="#7D7F68"/>
<path d="M271.673 79.3326L276.839 83.8646L278.776 71.5634L277.161 73.3439L271.673 79.3326Z" fill="#7D7F68"/>
<path d="M233.419 94.0616C233.904 94.5472 233.419 94.2235 233.904 94.5472L237.293 92.1193C236.809 91.7956 236.325 91.3101 235.841 90.9863C230.998 86.4543 232.289 76.4192 235.356 70.9161C226.963 77.7141 227.447 88.0729 233.419 94.0616Z" fill="#C7A008"/>
<path d="M274.256 99.7265C268.607 104.42 262.312 107.334 253.918 109.438C252.143 109.924 250.206 110.247 248.592 110.247C235.195 111.542 224.058 105.392 219.861 95.5182C219.377 94.3852 218.892 93.0904 218.57 91.7955C216.633 83.3789 218.247 75.9335 222.443 69.9448C222.928 69.2974 223.25 68.8118 223.735 68.3262C223.573 68.4881 223.251 68.6499 223.089 68.8118C221.475 70.2685 220.022 71.7252 218.892 73.5056C214.696 79.3325 213.082 86.9398 215.019 95.3564C215.341 96.6512 215.664 97.9461 216.31 99.0791C220.507 109.114 231.805 115.265 245.041 113.97C246.816 113.808 248.592 113.484 250.529 112.999C258.922 110.895 265.378 107.981 270.866 103.287C272.158 102.154 273.61 100.86 274.902 99.5646L274.74 99.4028C274.417 99.5646 274.256 99.5646 274.256 99.7265Z" fill="#C7A008"/>
<path d="M180.154 74.315L195.004 53.2736L194.358 52.788L179.993 73.0202L180.154 74.315Z" fill="#C7A008"/>
<path d="M278.776 71.5634L276.839 83.8646L274.256 81.5986L273.288 87.4254L268.122 82.7316L273.61 76.9047L275.225 75.1243V75.2861L277.161 73.3439L278.776 71.5634Z" fill="#C7A008"/>
<path d="M260.375 36.926L265.54 34.66L256.017 22.3589L252.95 26.8909L260.375 36.926Z" fill="#C7A008"/>
<path d="M115.751 67.3551C91.5399 37.8971 48.1206 53.7591 32.6252 67.5169L33.2709 68.6499C36.8219 66.5458 40.6957 64.7654 44.5696 62.9849C60.0649 56.3488 74.9147 54.4065 86.6976 56.5106C90.8943 56.9962 95.2523 58.2911 99.1262 60.8808C104.453 63.9561 108.488 68.1644 110.909 73.6675C115.106 83.3789 111.393 96.3275 101.547 107.01C113.976 95.5182 122.531 84.5119 115.751 67.3551Z" fill="#C7A008"/>
<path d="M164.981 101.669C164.82 101.183 164.82 100.536 164.659 100.05C163.367 95.1946 160.462 91.31 156.588 88.7203C150.455 84.512 141.738 83.7027 133.184 87.2636C128.664 89.2059 124.79 92.2811 121.562 95.842C123.983 93.7379 126.727 92.1193 129.633 90.8244C138.187 87.1017 146.904 88.0728 153.037 92.2811C156.911 94.8709 159.816 98.7554 161.108 103.611C161.269 104.097 161.43 104.744 161.43 105.23C161.753 107.172 161.915 108.952 161.915 110.895C161.753 116.56 159.655 122.225 156.265 127.08C155.781 127.89 155.135 128.537 154.49 129.346C156.427 127.566 158.202 125.786 159.655 123.681C163.206 118.826 165.143 113.161 165.466 107.496C165.466 105.553 165.304 103.611 164.981 101.669Z" fill="#C7A008"/>
<path d="M141.254 94.5472C141.254 94.5472 144.805 90.9863 144.644 90.9863C140.286 90.8244 138.349 95.0327 138.187 95.3564C139.156 94.8709 140.124 94.709 141.254 94.5472Z" fill="#C7A008"/>
<path d="M149.486 99.5647C149.647 100.212 149.809 100.698 149.809 101.345C149.809 102.316 149.647 103.126 149.163 103.935C149.809 103.611 154.974 101.021 153.037 95.842C153.199 96.1657 149.325 99.5647 149.486 99.5647Z" fill="#C7A008"/>
<path d="M129.471 102.64C129.471 100.536 133.184 95.1945 134.314 93.4141C128.503 97.1368 125.92 102.154 125.92 106.039C125.92 112.837 131.892 118.34 138.994 118.34C142.384 118.34 148.518 116.56 152.553 110.085C150.455 111.542 145.128 114.779 142.223 114.779C135.121 114.779 129.471 109.438 129.471 102.64Z" fill="#C7A008"/>
<path d="M179.347 108.791L179.508 136.145L183.866 136.468L182.898 105.23L179.347 108.791Z" fill="#C7A008"/>
<path d="M154.49 56.5106V58.9385L175.15 52.7879L176.603 79.1707L180.154 74.3149L179.347 47.9322L154.49 56.5106Z" fill="#C7A008"/>
<path d="M216.633 65.8984L197.425 48.0941L195.004 53.2736L212.113 69.2974L216.633 65.8984Z" fill="#C7A008"/>
<path d="M213.727 99.0791L190.968 91.4718L187.74 95.0327L210.338 104.097C212.92 108.952 216.794 113.161 221.636 116.074C226.317 118.988 231.805 120.768 237.455 121.254V132.422L241.006 134.202L242.135 117.369L213.727 99.0791Z" fill="#C7A008"/>
<path d="M250.206 96.0039C255.855 94.709 258.922 91.7956 261.827 88.5585C259.729 90.3389 249.399 92.6049 247.623 93.0905L244.234 96.8132C245.686 96.8132 248.269 96.4895 250.206 96.0039Z" fill="#C7A008"/>
<path d="M240.037 57.1582C229.707 58.4531 224.38 67.1934 223.573 68.1645C227.447 64.9274 232.128 62.4995 237.455 61.3665C250.206 58.2912 261.343 62.1758 268.284 70.7542L272.642 67.1933C265.701 58.7768 252.789 54.0829 240.037 57.1582Z" fill="#C7A008"/>
<path d="M274.579 99.4028C275.87 98.4316 277.968 97.2986 279.26 96.0038L265.54 83.7026C264.41 84.9975 263.603 87.1016 262.312 88.0728L274.579 99.4028Z" fill="#C7A008"/>
<path d="M345.115 132.422C330.75 120.444 331.557 95.0327 338.659 86.9399L332.364 46.9612L318.482 48.7416L317.837 52.3024H328.328L333.978 88.5584C326.876 96.6513 323.486 107.496 325.746 117.531C327.521 125.3 332.364 131.451 339.143 135.011C339.789 135.335 340.596 135.659 341.241 135.983L341.403 136.468L345.599 137.116C345.438 137.277 345.922 132.745 345.115 132.422Z" fill="#C7A008"/>
<path d="M289.751 52.7881L289.106 56.3489H304.924L309.605 82.0842L313.156 78.5234L309.444 51.3314L289.751 52.7881Z" fill="#C7A008"/>
<path d="M316.868 102.64L311.703 115.912L312.994 119.473L320.258 99.241L316.868 102.64Z" fill="#C7A008"/>
<path d="M301.696 94.3853L298.145 97.9462L294.271 121.901L297.983 123.196L301.696 94.3853Z" fill="#C7A008"/>
<path d="M372.878 86.6161C374.976 88.0729 376.751 90.0151 378.043 92.2811C379.173 94.0616 379.818 95.842 380.464 98.108C382.239 105.392 380.141 113.161 375.622 119.311C375.137 119.959 374.653 120.606 374.169 121.092C375.944 119.473 398.542 102.802 376.59 80.9511C352.379 73.0201 343.178 88.7203 342.371 89.8533C344.954 87.7491 347.859 85.8069 351.087 84.6739C359.158 81.4367 367.228 82.5697 372.878 86.6161Z" fill="#C7A008"/>
<path d="M360.772 88.2347C360.772 88.3966 364.323 84.6739 364.323 84.6739C359.965 84.8357 357.866 86.9399 358.189 87.911C357.866 88.2347 357.705 88.7203 357.544 89.044C358.351 88.5584 360.126 88.2347 360.772 88.2347Z" fill="#C7A008"/>
<path d="M368.842 93.7378C369.004 94.3853 369.004 94.8708 369.004 95.5183C369.004 96.3276 368.681 97.1368 368.358 97.7843C369.004 97.4606 374.169 95.842 372.232 90.0151C372.393 90.3389 368.681 93.7378 368.842 93.7378Z" fill="#C7A008"/>
<path d="M357.382 112.028C362.224 112.19 367.712 109.276 371.586 103.935C361.74 106.039 351.249 89.3677 352.217 87.7491C348.505 90.5007 345.115 95.6801 344.954 99.4029C344.631 106.201 350.28 111.704 357.382 112.028Z" fill="#C7A008"/>
<path d="M411.777 155.243L414.037 156.7L442.445 71.2396L421.139 66.3839L420.978 71.4015L438.087 75.1242L411.777 155.243Z" fill="#C7A008"/>
<path d="M378.043 57.1581L378.204 62.0138L400.802 66.5458L409.518 107.981L413.069 104.42L404.675 62.4994L378.043 57.1581Z" fill="#C7A008"/>
<path d="M395.475 104.42L389.18 139.705L392.731 140.838L399.026 100.86L395.475 104.42Z" fill="#C7A008"/>
<path d="M102.193 152.654L91.7014 114.132L87.8275 116.883L97.6735 153.625L102.193 152.654Z" fill="#C7A008"/>
<path d="M99.449 94.8709C97.0279 97.4606 91.5399 102.478 88.4731 104.42L86.5362 98.4318L82.501 85.1595L79.9184 76.2573L77.3358 79.4945L79.9184 88.3966L83.9537 101.507L85.8906 107.496C90.2486 105.068 96.3822 99.8885 99.449 94.8709Z" fill="#C7A008"/>
<path d="M249.238 72.049C245.848 70.7541 241.167 71.0778 238.584 73.9913C237.939 74.6387 236.809 76.2573 236.486 77.0666C238.907 75.1243 243.427 74.6387 246.171 75.7717L249.238 72.049Z" fill="#7D7F68"/>
<path d="M96.5436 84.0264C96.2208 82.0841 94.2839 80.4656 93.3154 79.98C91.7013 79.1707 88.6345 79.0088 86.5362 79.4944C86.859 80.7893 87.3432 82.4078 87.5047 83.0553C88.3117 83.2171 89.7644 83.379 90.5714 83.7027C91.5399 84.1883 93.154 85.1594 93.4768 87.2636C93.9611 89.8533 93.7996 92.443 92.6698 94.3853C95.7366 91.4718 97.1893 88.2347 96.5436 84.0264Z" fill="#7D7F68"/>
<path d="M101.788 83.8872C100.335 76.1181 90.1663 71.748 79.9975 77.2511L82.58 86.1532L86.6153 99.4255L88.5522 105.414C96.1385 100.72 103.725 94.7317 101.788 83.8872ZM91.7804 96.0265C90.6505 92.4657 88.2294 84.6965 88.2294 84.6965C88.2294 84.6965 87.7452 83.078 87.0995 81.1357C89.1978 80.812 91.2962 80.9738 92.9103 81.7831C93.8787 82.2687 95.4928 83.2398 95.8157 85.344C96.7841 89.5522 95.3314 92.7894 91.7804 96.0265Z" fill="#3C5AA6"/>
<path d="M254.482 71.5861C248.832 66.4067 240.116 66.7304 234.951 72.3954C229.786 78.0604 230.109 86.8007 235.758 91.9801C236.242 92.4657 236.726 92.7894 237.211 93.1131L255.45 72.3954C255.127 72.2336 254.804 71.9098 254.482 71.5861ZM237.372 86.1533C235.597 82.9161 235.919 78.7078 238.663 75.7944C241.246 73.0428 245.12 72.2336 248.509 73.5284L237.372 86.1533Z" fill="#3567B0"/>
<path d="M278.776 69.2975L268.768 79.0089L278.291 87.5873L278.776 69.2975Z" fill="#1E2D5F"/>
<path d="M372.232 90.177C372.393 90.8244 372.393 91.4718 372.393 92.1192C372.232 96.0038 368.681 98.9172 364.323 98.7554C359.965 98.5935 356.575 95.3564 356.737 91.4718C356.898 87.911 360.126 84.9975 364 84.8357C363.193 84.6738 362.386 84.512 361.579 84.512C354.315 84.1882 348.505 89.3677 348.182 95.6801C347.859 102.478 353.347 108.143 360.449 108.305C367.712 108.629 373.523 103.449 373.846 96.6512C374.33 94.3852 373.523 92.1192 372.232 90.177Z" fill="#3466AF"/>
<path d="M153.36 97.9461C153.36 101.831 149.809 104.906 145.612 104.906C141.254 104.906 137.865 101.831 137.865 97.9461C137.865 94.3853 140.931 91.31 144.967 90.9863C144.16 90.8244 143.353 90.8244 142.545 90.8244C135.282 90.8244 129.633 96.1657 129.633 102.64C129.633 109.438 135.282 114.779 142.384 114.779C149.648 114.779 155.297 109.438 155.297 102.64C155.297 100.212 154.49 98.108 153.199 96.1657C153.199 96.6513 153.36 97.2987 153.36 97.9461Z" fill="url(#paint7_linear_1_95)"/>
<path d="M417.183 58.7993L413.955 72.0716L411.049 57.3426L371.343 48.6023L371.665 70.7767L377.638 72.0716L377.153 76.118C377.153 76.118 376.992 76.118 376.992 75.9562C369.567 72.0716 360.367 71.586 351.812 74.985C348.907 76.118 346.163 77.5747 343.741 79.3552L337.769 41.4806H311.459L310.814 45.8507H283.051L279.823 65.2736L277.563 62.3602C270.784 54.1055 261.1 49.5735 250.285 49.2497L273.851 36.6249L257.387 12.0226L227.688 46.3363L232.853 52.6487C228.172 54.591 224.137 57.1807 220.747 60.4179L195.244 37.7579L186.367 54.7529L186.69 38.2435L146.821 51.0302L147.951 72.3953L154.73 70.6149L155.699 81.4593C147.951 77.8985 138.589 78.0603 130.035 81.783C127.452 82.916 125.031 84.2109 122.933 85.8295C124.385 79.1933 124.062 72.719 121.48 66.8922C118.574 60.0942 113.248 54.2673 106.953 50.7065C102.433 47.6312 97.107 45.8507 91.4576 45.2033C77.7378 42.7755 61.1125 45.2033 44.8101 52.1632C38.8379 54.7529 33.1886 57.6663 28.1849 60.9035L21.8899 64.9499L25.7637 71.4242L37.7081 91.8182L41.4205 97.9687L47.8769 94.7316L48.8454 94.246L78.5448 160.607L81.4502 166.92L88.068 164.816L104.048 159.636L111.15 157.37L109.374 150.249L100.819 117.553C103.241 115.773 105.5 113.831 107.599 111.727C107.114 115.611 107.437 119.658 108.406 123.38C110.665 131.311 115.831 137.624 123.094 141.023C130.842 144.745 140.365 144.745 149.081 141.023C153.439 139.08 157.474 136.491 160.702 133.092L161.832 146.202L189.918 141.994V116.744L248.51 145.878V117.877C250.931 117.715 253.19 117.23 255.612 116.744C262.068 115.126 267.556 113.021 272.56 110.108L270.138 125.161L301.775 130.178L303.55 118.686L311.782 134.063L316.786 124.351L318.561 140.375L354.395 146.688L352.458 134.548C357.3 135.034 362.465 134.387 367.469 132.606C368.599 132.121 369.89 131.635 370.858 130.988L369.406 143.936L393.294 147.335L393.456 157.208L418.313 164.978L450.756 67.054L417.183 58.7993ZM277.079 73.3665L278.693 71.586L276.756 83.8872L271.591 79.1933L277.079 73.3665ZM256.096 22.867L264.812 34.6826L239.955 46.9837L238.179 44.394C238.179 44.5559 256.096 22.867 256.096 22.867ZM91.619 114.154L101.465 152.353L85.4854 157.532L52.5578 83.7253C50.7823 84.6964 47.3927 86.315 44.4873 87.7717L32.543 67.5396C37.2238 64.4643 42.5504 61.8746 48.0383 59.4467C63.5337 52.8106 78.3834 50.8683 90.1663 52.9725C94.363 53.458 98.7211 54.7529 102.595 57.3426C107.921 60.4179 111.957 64.6262 114.378 70.1293C120.189 83.4016 110.665 102.501 91.619 114.154ZM165.383 107.356C165.222 113.021 163.124 118.686 159.573 123.542C156.183 128.236 151.664 131.959 146.176 134.387C132.294 140.375 118.413 134.387 114.701 121.114C111.15 108.328 119.543 93.113 132.94 87.2862C141.495 83.5635 150.211 84.5346 156.344 88.7429C160.218 91.3326 163.124 95.2172 164.415 100.073C164.576 100.558 164.738 101.206 164.738 101.691C165.383 103.634 165.383 105.576 165.383 107.356ZM241.085 134.387L182.816 105.252L182.977 135.843L167.966 137.947L166.836 125.323C171.517 117.392 173.131 107.842 170.71 99.2636C169.419 94.5697 166.997 90.3615 163.608 87.1243L161.51 61.389L154.73 63.1695L154.408 56.6952L178.619 49.4116L180.072 74.3376L197.827 49.2497L215.421 65.921L191.048 91.6563L213.968 100.72C216.55 105.576 220.424 109.622 225.267 112.698C229.947 115.611 235.435 117.392 241.085 117.877V134.387ZM210.901 91.98L202.831 88.9047L210.417 81.6212C209.933 85.0202 210.094 88.4192 210.901 91.98ZM274.174 99.7492C268.524 104.443 262.229 107.356 253.836 109.461C252.061 109.946 250.124 110.27 248.51 110.27C235.113 111.565 223.975 105.414 219.779 95.5409C219.294 94.4079 218.81 93.113 218.487 91.8182C216.55 83.4016 218.164 75.9562 222.361 69.9675C223.491 68.187 224.944 66.7303 226.558 65.2736C230.432 61.7127 235.435 59.2849 241.085 57.8282C253.836 54.7529 264.973 58.6375 271.914 67.054L247.702 92.9512C249.317 93.2749 251.899 92.7893 253.836 92.3037C259.647 90.847 262.875 87.7717 265.619 84.5346L275.304 93.2749L278.209 95.8646C276.918 97.3213 275.626 98.6162 274.174 99.7492ZM325.664 134.225L320.337 99.2636L312.912 118.525L301.775 94.4079H301.613L297.255 122.409L278.693 119.172L281.276 103.634C281.921 102.986 282.728 102.339 283.374 101.53L289.346 95.379L283.535 90.0377L289.831 52.8106H308.554L313.235 78.5459L318.561 48.7642H331.958L337.608 85.0202C330.506 93.113 327.116 103.957 329.376 113.993C331.151 121.762 335.994 127.912 342.773 131.635C343.419 131.959 344.226 132.282 344.871 132.606L345.517 137.3L325.664 134.225ZM371.988 122.733C369.89 124.19 367.63 125.484 365.209 126.294C360.367 128.074 355.686 128.56 351.328 127.589C348.422 126.941 345.678 125.808 343.257 124.19C339.545 121.438 336.801 117.553 335.51 112.536C334.057 106.547 335.348 100.073 338.576 94.4079C340.19 91.6563 342.289 89.0666 344.71 86.8006C347.454 84.3727 350.682 82.2686 354.072 80.9737C362.304 77.8985 370.374 79.0314 376.023 83.0779C378.122 84.5346 379.897 86.4769 381.189 88.7429C382.157 90.5233 382.964 92.4656 383.448 94.5697C385.224 101.853 383.125 109.622 378.606 115.773C377.153 118.525 374.732 120.791 371.988 122.733ZM413.955 155.752L400.235 151.705L399.105 100.882L392.164 140.052L377.153 137.624L378.283 126.294C388.129 118.039 393.294 104.929 390.389 92.9512C389.098 87.7717 386.515 83.0779 382.641 79.6789L383.933 66.4066L378.283 64.9499L378.445 57.8282L404.27 63.0076L412.986 104.281L421.864 67.2159L441.556 71.586L413.955 155.752Z" fill="url(#paint8_linear_1_95)"/>
<path d="M432.438 150.064H433.084C433.891 150.064 434.536 149.74 434.536 148.931C434.536 148.446 434.052 147.798 433.084 147.798H432.438V150.064ZM432.438 153.463H431.469V147.313C431.954 147.151 432.438 147.151 433.245 147.151C434.213 147.151 434.859 147.313 435.182 147.636C435.505 147.96 435.828 148.284 435.828 148.931C435.828 149.74 435.343 150.226 434.698 150.388C435.182 150.55 435.666 151.035 435.666 151.845C435.827 152.816 435.989 153.139 435.989 153.301H435.02C434.859 153.139 434.698 152.492 434.536 151.683C434.375 150.873 434.052 150.55 433.245 150.55H432.438V153.463ZM433.568 145.532C431.147 145.532 429.21 147.636 429.21 150.226C429.21 152.816 431.147 154.92 433.729 154.92C436.15 154.92 438.087 152.816 438.087 150.226C437.926 147.636 435.989 145.532 433.568 145.532ZM433.568 144.723C436.635 144.723 438.894 147.151 438.894 150.226C438.894 153.301 436.473 155.729 433.406 155.729C430.34 155.729 427.918 153.301 427.918 150.226C428.08 147.151 430.501 144.723 433.568 144.723Z" fill="black"/>
</g>
<path d="M280.628 173.64C279.721 174.253 278.694 175.053 277.548 176.04C276.428 177 275.294 178.04 274.148 179.16C274.948 180.52 275.668 181.8 276.308 183C276.974 184.173 277.494 185.093 277.868 185.76C278.001 186.027 278.014 186.373 277.908 186.8C277.801 187.227 277.588 187.48 277.268 187.56C276.974 187.64 276.654 187.6 276.308 187.44C275.988 187.28 275.761 187.053 275.628 186.76C275.094 185.8 274.561 184.84 274.028 183.88C273.494 182.893 272.921 181.92 272.308 180.96C271.241 182.027 270.281 183.027 269.428 183.96C268.574 184.893 267.921 185.667 267.468 186.28C267.094 186.76 266.734 187 266.388 187C266.068 186.973 265.801 186.88 265.588 186.72C265.401 186.587 265.281 186.427 265.228 186.24C265.201 186.027 265.214 185.827 265.268 185.64C265.321 185.427 265.388 185.227 265.468 185.04C265.574 184.827 265.681 184.64 265.788 184.48C266.321 183.76 267.028 182.907 267.908 181.92C268.788 180.933 269.788 179.88 270.908 178.76C269.548 176.627 268.068 174.56 266.468 172.56C266.308 172.267 266.241 172.027 266.268 171.84C266.321 171.653 266.388 171.52 266.468 171.44C266.841 171.147 267.201 171.04 267.548 171.12C267.921 171.2 268.281 171.347 268.628 171.56C269.294 172.2 269.974 173 270.668 173.96C271.388 174.893 272.094 175.893 272.788 176.96C273.908 175.947 275.054 174.96 276.228 174C277.428 173.013 278.628 172.133 279.828 171.36C280.094 171.2 280.401 171.187 280.748 171.32C281.121 171.453 281.361 171.667 281.468 171.96C281.574 172.28 281.521 172.6 281.308 172.92C281.121 173.213 280.894 173.453 280.628 173.64Z" fill="#2C73B9"/>
<path d="M261.101 179.08C261.208 179.347 261.101 179.613 260.781 179.88C260.461 180.12 259.955 180.28 259.261 180.36C258.061 180.52 256.835 180.693 255.581 180.88C254.328 181.04 253.048 181.213 251.741 181.4C251.688 182.76 251.688 184.12 251.741 185.48C252.355 185.48 253.088 185.427 253.941 185.32C254.821 185.187 255.715 185.027 256.621 184.84C257.528 184.653 258.395 184.467 259.221 184.28C260.075 184.067 260.795 183.893 261.381 183.76C261.675 183.68 261.981 183.627 262.301 183.6C262.621 183.547 262.901 183.547 263.141 183.6C263.408 183.627 263.621 183.72 263.781 183.88C263.941 184.04 264.021 184.267 264.021 184.56C264.021 184.64 263.928 184.76 263.741 184.92C263.555 185.08 263.315 185.253 263.021 185.44C262.755 185.6 262.461 185.76 262.141 185.92C261.848 186.053 261.581 186.16 261.341 186.24C259.688 186.773 258.061 187.24 256.461 187.64C254.861 188.013 253.301 188.213 251.781 188.24C250.901 188.267 250.235 188.04 249.781 187.56C249.328 187.053 249.088 186.333 249.061 185.4C249.008 184.093 249.008 182.773 249.061 181.44C248.608 181.173 248.381 180.8 248.381 180.32C248.435 179.813 248.675 179.467 249.101 179.28C249.155 178.507 249.195 177.733 249.221 176.96C249.248 176.16 249.288 175.373 249.341 174.6C249.048 174.547 248.781 174.4 248.541 174.16C248.328 173.92 248.221 173.653 248.221 173.36C248.221 173.12 248.275 172.907 248.381 172.72C248.488 172.507 248.688 172.347 248.981 172.24C249.461 172.133 250.048 172.013 250.741 171.88C251.435 171.747 252.141 171.627 252.861 171.52C253.608 171.413 254.315 171.32 254.981 171.24C255.675 171.16 256.261 171.107 256.741 171.08C257.301 171.027 257.835 171.08 258.341 171.24C258.875 171.4 259.368 171.707 259.821 172.16C259.928 172.533 259.848 172.813 259.581 173C259.341 173.187 259.021 173.307 258.621 173.36C258.221 173.413 257.741 173.48 257.181 173.56C256.621 173.613 256.035 173.68 255.421 173.76C254.835 173.84 254.235 173.92 253.621 174C253.035 174.053 252.475 174.12 251.941 174.2C251.941 174.253 251.941 174.32 251.941 174.4C251.968 174.453 251.981 174.507 251.981 174.56C251.928 175.253 251.888 175.947 251.861 176.64C251.835 177.333 251.808 178.027 251.781 178.72C252.901 178.533 254.048 178.373 255.221 178.24C256.395 178.08 257.328 177.973 258.021 177.92C258.581 177.867 259.128 177.933 259.661 178.12C260.195 178.307 260.675 178.627 261.101 179.08Z" fill="#2C73B9"/>
<path d="M235.089 173.2C234.689 173.36 234.342 173.373 234.049 173.24C233.756 173.107 233.542 172.933 233.409 172.72C233.222 172.453 233.169 172.173 233.249 171.88C233.329 171.587 233.556 171.333 233.929 171.12C234.542 170.773 235.316 170.493 236.249 170.28C237.182 170.04 238.182 169.973 239.249 170.08C240.316 170.187 241.289 170.48 242.169 170.96C243.076 171.413 243.836 172 244.449 172.72C245.089 173.44 245.569 174.267 245.889 175.2C246.236 176.107 246.396 177.067 246.369 178.08C246.316 179.147 246.102 180.213 245.729 181.28C245.382 182.347 244.889 183.347 244.249 184.28C243.636 185.213 242.889 186.067 242.009 186.84C241.156 187.587 240.209 188.173 239.169 188.6C238.449 188.787 237.902 188.813 237.529 188.68C237.156 188.547 236.902 188.387 236.769 188.2C236.716 188.067 236.689 187.893 236.689 187.68C236.716 187.44 236.862 187.2 237.129 186.96C236.809 184.373 236.609 181.88 236.529 179.48C236.476 177.053 236.449 174.84 236.449 172.84C235.996 172.92 235.542 173.04 235.089 173.2ZM239.449 172.68C239.289 172.653 239.116 172.64 238.929 172.64C238.769 172.613 238.609 172.6 238.449 172.6C238.609 172.813 238.742 173.08 238.849 173.4C238.956 173.693 239.009 173.987 239.009 174.28C239.009 175.907 239.022 177.653 239.049 179.52C239.102 181.387 239.236 183.4 239.449 185.56C240.622 184.707 241.622 183.64 242.449 182.36C243.302 181.053 243.756 179.68 243.809 178.24C243.836 176.907 243.502 175.733 242.809 174.72C242.116 173.68 240.996 173 239.449 172.68Z" fill="#2C73B9"/>
<path d="M231.852 172.64C231.665 174.907 231.438 177.227 231.172 179.6C230.932 181.947 230.598 184.16 230.172 186.24C230.065 186.747 229.918 187.107 229.732 187.32C229.545 187.533 229.278 187.68 228.932 187.76C228.638 187.813 228.225 187.72 227.692 187.48C227.185 187.24 226.758 186.893 226.412 186.44C225.958 185.827 225.465 185.16 224.932 184.44C224.425 183.693 223.865 182.947 223.252 182.2C222.665 181.427 222.038 180.667 221.372 179.92C220.732 179.173 220.052 178.48 219.332 177.84C219.252 179.6 219.185 181.347 219.132 183.08C219.078 184.787 219.078 186.507 219.132 188.24C219.132 188.48 218.918 188.6 218.492 188.6C217.985 188.6 217.572 188.347 217.252 187.84C216.932 187.307 216.745 186.773 216.692 186.24C216.612 185.707 216.572 184.947 216.572 183.96C216.572 182.947 216.585 181.893 216.612 180.8C216.665 179.707 216.718 178.653 216.772 177.64C216.825 176.627 216.878 175.827 216.932 175.24C216.985 174.6 217.132 174.133 217.372 173.84C217.638 173.547 217.892 173.413 218.132 173.44C218.665 173.493 219.012 173.653 219.172 173.92C219.358 174.16 219.465 174.467 219.492 174.84C220.452 175.533 221.332 176.28 222.132 177.08C222.958 177.88 223.705 178.693 224.372 179.52C225.065 180.347 225.692 181.173 226.252 182C226.838 182.8 227.385 183.533 227.892 184.2C228.212 182.6 228.465 180.813 228.652 178.84C228.865 176.867 229.078 174.8 229.292 172.64C229.265 172.373 229.425 172.12 229.772 171.88C230.118 171.613 230.438 171.493 230.732 171.52C231.478 171.573 231.852 171.947 231.852 172.64Z" fill="#2C73B9"/>
<path d="M212.693 185.6C212.72 185.707 212.733 185.867 212.733 186.08C212.733 186.267 212.693 186.467 212.613 186.68C212.533 186.867 212.413 187.04 212.253 187.2C212.12 187.333 211.92 187.4 211.653 187.4C211.066 187.027 210.573 186.533 210.173 185.92C209.96 185.12 209.76 184.2 209.573 183.16C209.413 182.12 209.28 181.04 209.173 179.92C209.066 178.773 208.986 177.613 208.933 176.44C208.906 175.267 208.906 174.133 208.933 173.04C208.933 172.853 208.946 172.613 208.973 172.32C209.026 172.027 209.106 171.747 209.213 171.48C209.32 171.187 209.453 170.947 209.613 170.76C209.773 170.547 210 170.44 210.293 170.44C210.64 170.44 210.92 170.547 211.133 170.76C211.346 170.973 211.453 171.32 211.453 171.8C211.426 172.867 211.426 174.013 211.453 175.24C211.506 176.44 211.586 177.653 211.693 178.88C211.8 180.107 211.933 181.307 212.093 182.48C212.28 183.627 212.48 184.667 212.693 185.6Z" fill="#2C73B9"/>
<defs>
<filter id="filter0_dd_1_95" x="0" y="0" width="466.756" height="191.915" filterUnits="userSpaceOnUse" color-interpolation-filters="sRGB">
<feFlood flood-opacity="0" result="BackgroundImageFix"/>
<feColorMatrix in="SourceAlpha" type="matrix" values="0 0 0 0 0 0 0 0 0 0 0 0 0 0 0 0 0 0 127 0" result="hardAlpha"/>
<feOffset dy="4"/>
<feGaussianBlur stdDeviation="8"/>
<feComposite in2="hardAlpha" operator="out"/>
<feColorMatrix type="matrix" values="0 0 0 0 0 0 0 0 0 0 0 0 0 0 0 0 0 0 0.25 0"/>
<feBlend mode="normal" in2="BackgroundImageFix" result="effect1_dropShadow_1_95"/>
<feColorMatrix in="SourceAlpha" type="matrix" values="0 0 0 0 0 0 0 0 0 0 0 0 0 0 0 0 0 0 127 0" result="hardAlpha"/>
<feOffset dy="2"/>
<feGaussianBlur stdDeviation="2"/>
<feComposite in2="hardAlpha" operator="out"/>
<feColorMatrix type="matrix" values="0 0 0 0 0 0 0 0 0 0 0 0 0 0 0 0 0 0 0.25 0"/>
<feBlend mode="normal" in2="effect1_dropShadow_1_95" result="effect2_dropShadow_1_95"/>
<feBlend mode="normal" in="SourceGraphic" in2="effect2_dropShadow_1_95" result="shape"/>
</filter>
<linearGradient id="paint0_linear_1_95" x1="37.4675" y1="98.6324" x2="21.2279" y2="68.4544" gradientUnits="userSpaceOnUse">
<stop stop-color="#0070B6"/>
<stop offset="1" stop-color="#1D2C5E"/>
</linearGradient>
<linearGradient id="paint1_linear_1_95" x1="234.67" y1="36.9033" x2="255.254" y2="14.9087" gradientUnits="userSpaceOnUse">
<stop stop-color="#0070B6"/>
<stop offset="1" stop-color="#1D2C5E"/>
</linearGradient>
<linearGradient id="paint2_linear_1_95" x1="145.131" y1="73.6676" x2="142.671" y2="53.0518" gradientUnits="userSpaceOnUse">
<stop stop-color="#0070B6"/>
<stop offset="1" stop-color="#1D2C5E"/>
</linearGradient>
<linearGradient id="paint3_linear_1_95" x1="369.32" y1="69.6988" x2="368.338" y2="51.0888" gradientUnits="userSpaceOnUse">
<stop stop-color="#125D9E"/>
<stop offset="1" stop-color="#1D2C5E"/>
</linearGradient>
<linearGradient id="paint4_linear_1_95" x1="300.826" y1="42.8743" x2="279.202" y2="77.1794" gradientUnits="userSpaceOnUse">
<stop stop-color="#125D9E"/>
<stop offset="1" stop-color="#1D2C5E"/>
</linearGradient>
<linearGradient id="paint5_linear_1_95" x1="110.215" y1="97.9834" x2="124.965" y2="126.911" gradientUnits="userSpaceOnUse">
<stop stop-color="#105FA1"/>
<stop offset="1" stop-color="#1D2C5E"/>
</linearGradient>
<linearGradient id="paint6_linear_1_95" x1="54.8046" y1="88.0988" x2="71.8806" y2="127.574" gradientUnits="userSpaceOnUse">
<stop stop-color="#105FA1"/>
<stop offset="1" stop-color="#1D2C5E"/>
</linearGradient>
<linearGradient id="paint7_linear_1_95" x1="129.399" y1="102.776" x2="155.11" y2="102.776" gradientUnits="userSpaceOnUse">
<stop stop-color="#3C5AA6"/>
<stop offset="0.933" stop-color="#2B73B9"/>
<stop offset="1" stop-color="#2A75BB"/>
</linearGradient>
<linearGradient id="paint8_linear_1_95" x1="22.0142" y1="89.5052" x2="450.95" y2="89.5052" gradientUnits="userSpaceOnUse">
<stop stop-color="#3C5AA6"/>
<stop offset="0.933" stop-color="#2B73B9"/>
<stop offset="1" stop-color="#2A75BB"/>
</linearGradient>
</defs>
</svg>
